<?xml version="1.0" encoding="UTF-8" standalone="no"?>
<!-- Created with Inkscape (http://www.inkscape.org/) -->

<svg
   width="40mm"
   height="40mm"
   viewBox="0 0 40 40"
   version="1.1"
   id="svg1"
   xml:space="preserve"
   sodipodi:docname="Ford_Escort_Rim.svg"
   inkscape:version="1.4 (86a8ad7, 2024-10-11)"
   xmlns:inkscape="http://www.inkscape.org/namespaces/inkscape"
   xmlns:sodipodi="http://sodipodi.sourceforge.net/DTD/sodipodi-0.dtd"
   xmlns="http://www.w3.org/2000/svg"
   xmlns:svg="http://www.w3.org/2000/svg"><sodipodi:namedview
     id="namedview1"
     pagecolor="#ffffff"
     bordercolor="#000000"
     borderopacity="0.25"
     inkscape:showpageshadow="2"
     inkscape:pageopacity="0.0"
     inkscape:pagecheckerboard="0"
     inkscape:deskcolor="#d1d1d1"
     inkscape:document-units="mm"
     inkscape:zoom="2.9405047"
     inkscape:cx="61.724097"
     inkscape:cy="72.266505"
     inkscape:window-width="3440"
     inkscape:window-height="1369"
     inkscape:window-x="-8"
     inkscape:window-y="-8"
     inkscape:window-maximized="1"
     inkscape:current-layer="svg1" /><defs
     id="defs1" /><g
     id="layer1"
     transform="matrix(1.6552913,0,0,1.6552913,-44.952701,-285.95389)"><g
       id="g26"
       transform="matrix(-0.49205219,0.68485369,0.68485369,0.49205219,-93.206804,12.165654)"
       style="stroke:#000000;stroke-opacity:1"><circle
         style="fill:none;stroke:#000000;stroke-width:0.249875;stroke-opacity:1;paint-order:stroke fill markers"
         id="path3"
         cx="74.347908"
         cy="246.92238"
         r="10.509176" /><path
         style="fill:none;stroke:#000000;stroke-width:0.3;stroke-opacity:1;paint-order:stroke fill markers"
         d="m 79.918041,240.98969 c -0.132522,0.58076 -0.397562,1.74226 -0.572959,2.42826 -0.175396,0.68599 -0.261142,0.89646 -0.405363,1.0056 -0.144221,0.10914 -0.346889,0.11694 -0.487209,0.10525 -0.140321,-0.0117 -0.218288,-0.0428 -1.255079,-1.04456 -1.03679,-1.00171 -3.032364,-2.9739 -4.061352,-4.01848 -1.028989,-1.04458 -1.091352,-1.16151 -1.122534,-1.27064 -0.03118,-0.10914 -0.03118,-0.21048 -0.0039,-0.30401 0.02727,-0.0935 0.08187,-0.17931 0.479434,-0.28454 0.39757,-0.10524 1.138115,-0.22996 2.057979,-0.20658 0.919863,0.0234 2.018986,0.19488 2.841403,0.43654 0.822416,0.24166 1.368082,0.55347 1.72667,0.8458 0.358589,0.29233 0.530082,0.56516 0.654808,0.84969 0.124726,0.28454 0.202679,0.58076 0.241655,0.72887 0.03898,0.14811 0.03898,0.14805 -0.09354,0.7288 z"
         id="path19" /><path
         style="fill:none;stroke:#000000;stroke-width:0.3;stroke-opacity:1;paint-order:stroke fill markers"
         d="m 81.613533,240.54145 c 0.113032,0.10914 0.339098,0.32741 0.561269,0.62364 0.22217,0.29623 0.440435,0.6704 0.65091,1.08356 0.210476,0.41315 0.413153,0.86528 0.600244,1.31742 0.187091,0.45213 0.358585,0.90425 0.456028,1.37198 0.09744,0.46772 0.120829,0.95103 0.116933,1.3291 -0.0039,0.37808 -0.03508,0.65091 -0.214372,0.99391 -0.179296,0.343 -0.506696,0.75615 -0.962729,1.08355 -0.456034,0.32741 -1.040678,0.56906 -1.598051,0.77564 -0.557372,0.20658 -1.087447,0.37808 -1.426549,0.44434 -0.339101,0.0663 -0.487216,0.0273 -0.615835,-0.004 -0.128619,-0.0312 -0.237752,-0.0546 -0.319605,-0.15984 -0.08185,-0.10525 -0.136417,-0.29233 -0.07795,-0.73667 0.05847,-0.44435 0.229961,-1.14591 0.479417,-2.06967 0.249456,-0.92377 0.576853,-2.06966 0.826307,-3.04799 0.249454,-0.97833 0.420947,-1.78902 0.541776,-2.26454 0.120828,-0.47552 0.190987,-0.61584 0.327409,-0.70158 0.136422,-0.0857 0.339103,-0.1169 0.440437,-0.13249 0.101335,-0.0156 0.101328,-0.0156 0.214361,0.0935 z"
         id="path20" /><path
         style="fill:none;stroke:#000000;stroke-width:0.3;stroke-opacity:1;paint-order:stroke fill markers"
         d="m 83.410365,249.95046 c -0.0078,0.0935 -0.02339,0.28063 -0.249454,0.75616 -0.226069,0.47552 -0.6626,1.23945 -1.184896,1.93325 -0.522297,0.69379 -1.13032,1.3174 -1.660411,1.73835 -0.53009,0.42096 -0.98221,0.63922 -1.39927,0.71328 -0.41706,0.074 -0.799017,0.004 -1.110827,-0.0779 -0.31181,-0.0819 -0.553475,-0.1754 -1.04459,-0.59635 -0.491114,-0.42096 -1.231658,-1.1693 -1.621427,-1.61364 -0.38977,-0.44434 -0.428746,-0.58465 -0.420951,-0.72887 0.0078,-0.14421 0.06236,-0.29232 0.190998,-0.41315 0.128636,-0.12084 0.331291,-0.21437 1.640935,-0.60415 1.309644,-0.38977 3.726159,-1.07575 5.0124,-1.44603 1.286241,-0.37028 1.442139,-0.42484 1.57076,-0.38977 0.128622,0.0351 0.229964,0.15981 0.272838,0.28064 0.04287,0.12083 0.02729,0.23775 0.01949,0.29622 -0.0078,0.0585 -0.0078,0.0585 -0.01559,0.15201 z"
         id="path21" /><path
         style="fill:none;stroke:#000000;stroke-width:0.3;stroke-opacity:1;paint-order:stroke fill markers"
         d="m 76.846669,255.98406 c -0.09354,0.0935 -0.280633,0.28064 -0.596351,0.40147 -0.315719,0.12083 -0.760041,0.17539 -1.212178,0.19878 -0.452137,0.0234 -0.912051,0.0156 -1.391471,-0.008 -0.479421,-0.0234 -0.978316,-0.0624 -1.523995,-0.19878 -0.545679,-0.13642 -1.138115,-0.37028 -1.613636,-0.62753 -0.475521,-0.25725 -0.834097,-0.53787 -1.071858,-0.82241 -0.237761,-0.28453 -0.354692,-0.57296 -0.417054,-0.81461 -0.06236,-0.24166 -0.07016,-0.43654 0.03508,-1.0134 0.105238,-0.57687 0.323504,-1.53568 0.475515,-2.12033 0.15201,-0.58466 0.237756,-0.79513 0.374178,-0.95104 0.136422,-0.15591 0.323507,-0.25725 0.510604,-0.27284 0.187097,-0.0156 0.374169,0.0546 0.721067,0.33911 0.346897,0.28453 0.853585,0.78342 1.668212,1.57856 0.814627,0.79514 1.937138,1.88647 2.6777,2.63872 0.740562,0.75226 1.099145,1.16541 1.278437,1.37198 0.179292,0.20658 0.179294,0.20659 0.08575,0.30013 z"
         id="path22" /><path
         style="fill:none;stroke:#000000;stroke-width:0.3;stroke-opacity:1;paint-order:stroke fill markers"
         d="m 70.095887,245.65522 c 0.0078,-0.13253 0.02338,-0.39757 -0.03508,-0.58856 -0.05847,-0.19098 -0.190985,-0.30791 -0.307924,-0.37028 -0.116939,-0.0624 -0.218262,-0.0702 -0.362482,-0.0507 -0.14422,0.0195 -0.331288,0.0662 -0.939341,0.26893 -0.608054,0.20268 -1.637022,0.56126 -2.241165,0.79903 -0.604143,0.23776 -0.783427,0.35469 -0.919846,0.52618 -0.13642,0.1715 -0.229966,0.39757 -0.296226,0.59635 -0.06626,0.19878 -0.105238,0.37028 -0.132521,0.63532 -0.02728,0.26505 -0.04287,0.62363 -0.02338,0.92765 0.01949,0.30402 0.07406,0.55347 0.495014,1.38369 0.420958,0.83022 1.208272,2.24115 1.668188,2.9895 0.459916,0.74835 0.592458,0.83411 0.721089,0.88089 0.128631,0.0468 0.253341,0.0546 0.331288,0.0117 0.07795,-0.0429 0.109139,-0.13644 0.440448,-1.45778 0.331309,-1.32134 0.962721,-3.87037 1.278433,-5.14491 0.315712,-1.27454 0.315714,-1.27454 0.323509,-1.40706 z"
         id="path23" /><path
         style="fill:none;stroke:#000000;stroke-width:0.3;stroke-opacity:1;paint-order:stroke fill markers"
         d="m 73.950694,241.4652 c -0.18319,-0.20657 -0.549571,-0.61972 -0.915957,-0.97831 -0.366387,-0.35859 -0.73276,-0.6626 -1.025092,-0.90816 -0.292331,-0.24556 -0.510593,-0.43264 -0.779529,-0.56906 -0.268936,-0.13642 -0.588552,-0.22217 -0.908166,-0.25334 -0.319614,-0.0312 -0.639218,-0.008 -0.93934,0.078 -0.300122,0.0858 -0.580753,0.23387 -0.947139,0.5223 -0.366386,0.28843 -0.81851,0.71717 -1.188793,1.13422 -0.370282,0.41706 -0.658703,0.82241 -0.923747,1.23947 -0.265044,0.41705 -0.506698,0.84579 -0.685993,1.23166 -0.179294,0.38588 -0.296223,0.72887 -0.354688,1.0173 -0.05846,0.28843 -0.05846,0.52228 0.0039,0.6704 0.06237,0.14811 0.187081,0.21047 0.335197,0.22216 0.148115,0.0117 0.319593,-0.0273 1.730587,-0.41316 1.410993,-0.38588 4.061362,-1.11863 5.44505,-1.52399 1.383688,-0.40537 1.500597,-0.48331 1.551266,-0.60803 0.05067,-0.12473 0.03508,-0.29623 -0.0117,-0.41317 -0.04678,-0.11694 -0.124712,-0.17928 -0.16369,-0.21047 -0.03898,-0.0312 -0.03898,-0.0312 -0.22217,-0.2378 z"
         id="path24" /><circle
         style="fill:none;stroke:#000000;stroke-width:0.3;stroke-opacity:1;paint-order:stroke fill markers"
         id="path26"
         cx="74.496376"
         cy="247.20259"
         r="1.4148581" /><circle
         style="fill:none;stroke:#000000;stroke-width:0.334792;stroke-opacity:1;paint-order:stroke fill markers"
         id="circle26"
         cx="74.643532"
         cy="247.02321"
         r="14.08065" /></g></g></svg>
