<?xml version="1.0" encoding="UTF-8" standalone="no"?>
<!-- Created with Inkscape (http://www.inkscape.org/) -->

<svg
   width="67mm"
   height="67mm"
   viewBox="0 0 67 67"
   version="1.1"
   id="svg1"
   xml:space="preserve"
   inkscape:version="1.4 (86a8ad7, 2024-10-11)"
   sodipodi:docname="Ford_Escort_Rim.svg"
   inkscape:export-filename="Ford_Escort_Rim.png"
   inkscape:export-xdpi="96"
   inkscape:export-ydpi="96"
   xmlns:inkscape="http://www.inkscape.org/namespaces/inkscape"
   xmlns:sodipodi="http://sodipodi.sourceforge.net/DTD/sodipodi-0.dtd"
   xmlns="http://www.w3.org/2000/svg"
   xmlns:svg="http://www.w3.org/2000/svg"><sodipodi:namedview
     id="namedview1"
     pagecolor="#ffffff"
     bordercolor="#000000"
     borderopacity="0.25"
     inkscape:showpageshadow="2"
     inkscape:pageopacity="0.0"
     inkscape:pagecheckerboard="0"
     inkscape:deskcolor="#d1d1d1"
     inkscape:document-units="mm"
     inkscape:zoom="2.0792508"
     inkscape:cx="76.46985"
     inkscape:cy="219.55023"
     inkscape:window-width="3440"
     inkscape:window-height="1369"
     inkscape:window-x="-8"
     inkscape:window-y="-8"
     inkscape:window-maximized="1"
     inkscape:current-layer="layer1" /><defs
     id="defs1" /><g
     inkscape:label="Layer 1"
     inkscape:groupmode="layer"
     id="layer1"><g
       id="g26"
       transform="matrix(-0.57171623,2.2625246,2.2625246,0.57171623,-411.24359,-161.72886)"
       style="stroke:#000000;stroke-opacity:1"><circle
         style="opacity:1;mix-blend-mode:color-burn;fill:none;stroke:#000000;stroke-width:0.249875;stroke-opacity:1;paint-order:stroke fill markers"
         id="path3"
         cx="179.92258"
         cy="-104.62835"
         r="10.509176"
         transform="rotate(110.65998)" /><path
         style="opacity:1;mix-blend-mode:color-burn;fill:none;stroke:#000000;stroke-width:0.3;stroke-opacity:1;paint-order:stroke fill markers"
         d="m 38.203751,212.33106 c -0.496651,-0.3289 -1.489951,-0.9867 -2.069949,-1.39285 -0.579988,-0.40615 -0.746674,-0.56064 -0.797907,-0.73409 -0.05121,-0.17346 0.01302,-0.36585 0.07342,-0.49301 0.06049,-0.12718 0.117056,-0.18915 1.420196,-0.80583 1.3031,-0.61669 3.852541,-1.7881 5.192991,-2.38236 1.34045,-0.59427 1.47187,-0.61136 1.584981,-0.60204 0.113122,0.009 0.207945,0.0451 0.285836,0.10362 0.0779,0.0585 0.138889,0.13987 0.09711,0.54899 -0.04178,0.40913 -0.186376,1.14606 -0.532806,1.99852 -0.346441,0.85245 -0.894685,1.82038 -1.410971,2.50465 -0.516286,0.68426 -1.000566,1.08482 -1.400617,1.31721 -0.400041,0.23239 -0.715832,0.29659 -1.026078,0.31291 -0.310249,0.0163 -0.614918,-0.0153 -0.767258,-0.031 -0.152331,-0.0158 -0.152279,-0.0157 -0.648929,-0.34466 z"
         id="path19" /><path
         style="opacity:1;mix-blend-mode:color-burn;fill:none;stroke:#000000;stroke-width:0.3;stroke-opacity:1;paint-order:stroke fill markers"
         d="m 38.024955,214.07567 c -0.141994,0.0673 -0.42599,0.20177 -0.781558,0.30514 -0.355567,0.10337 -0.782686,0.17558 -1.243533,0.22675 -0.460836,0.0512 -0.9554,0.0813 -1.444472,0.0968 -0.489063,0.0155 -0.972614,0.0165 -1.444646,-0.0574 -0.472022,-0.0738 -0.932504,-0.22248 -1.284883,-0.35952 -0.352389,-0.13704 -0.596674,-0.26248 -0.854358,-0.55126 -0.257684,-0.28878 -0.528747,-0.74089 -0.674193,-1.28311 -0.145456,-0.54223 -0.165343,-1.17453 -0.161894,-1.76895 0.0033,-0.59441 0.02991,-1.15091 0.08755,-1.49158 0.05757,-0.34068 0.146354,-0.46552 0.221015,-0.57482 0.07463,-0.10934 0.134975,-0.2032 0.262333,-0.24266 0.127358,-0.0394 0.321658,-0.0245 0.71679,0.18698 0.395143,0.21148 0.991087,0.61947 1.767427,1.17881 0.77635,0.55934 1.733033,1.26997 2.560433,1.84856 0.827399,0.57859 1.525452,1.02508 1.927762,1.30591 0.40231,0.28084 0.508846,0.39599 0.540942,0.55389 0.03211,0.15788 -0.01027,0.35854 -0.03145,0.45886 -0.02119,0.10033 -0.02119,0.10032 -0.163119,0.16759 z"
         id="path20" /><path
         style="opacity:1;mix-blend-mode:color-burn;fill:none;stroke:#000000;stroke-width:0.3;stroke-opacity:1;paint-order:stroke fill markers"
         d="m 28.587075,212.43725 c -0.08478,-0.0403 -0.254332,-0.1209 -0.619518,-0.5002 -0.365177,-0.37931 -0.925965,-1.0573 -1.390866,-1.79079 -0.464902,-0.73349 -0.833883,-1.52244 -1.040736,-2.16696 -0.206853,-0.64452 -0.251564,-1.14458 -0.17375,-1.56094 0.07791,-0.41635 0.278165,-0.74905 0.464811,-1.01191 0.186645,-0.26286 0.359401,-0.45599 0.926555,-0.76701 0.567165,-0.311 1.528657,-0.73989 2.081941,-0.94782 0.553283,-0.20793 0.698318,-0.1949 0.830512,-0.13672 0.132184,0.0582 0.251526,0.16148 0.3192,0.32448 0.06769,0.163 0.0837,0.38562 -0.01366,1.74856 -0.09737,1.36294 -0.308102,3.86608 -0.415446,5.20025 -0.107345,1.33417 -0.111299,1.49929 -0.1895,1.60726 -0.07822,0.10797 -0.230669,0.15879 -0.358855,0.15628 -0.128186,-0.003 -0.232089,-0.0583 -0.284041,-0.0863 -0.05204,-0.0279 -0.05204,-0.0279 -0.136739,-0.0682 z"
         id="path21" /><path
         style="opacity:1;mix-blend-mode:color-burn;fill:none;stroke:#000000;stroke-width:0.3;stroke-opacity:1;paint-order:stroke fill markers"
         d="m 25.2573,204.16688 c -0.05452,-0.12052 -0.163571,-0.36161 -0.165238,-0.69965 -0.0017,-0.33805 0.104039,-0.77305 0.241678,-1.20436 0.137629,-0.43132 0.307202,-0.8589 0.498428,-1.29916 0.19105,-0.44034 0.40356,-0.89339 0.723701,-1.35586 0.320173,-0.46245 0.748011,-0.93428 1.156495,-1.28846 0.408485,-0.35417 0.797568,-0.59068 1.147698,-0.71276 0.35012,-0.12208 0.661259,-0.12973 0.909369,-0.10282 0.24812,0.0269 0.433222,0.0884 0.935847,0.39037 0.502645,0.302 1.322781,0.84452 1.816208,1.19303 0.493427,0.34852 0.660102,0.50301 0.757859,0.68567 0.09778,0.18265 0.126566,0.39346 0.07513,0.57403 -0.05144,0.18057 -0.18311,0.33084 -0.571709,0.55505 -0.388629,0.2242 -1.034201,0.52228 -2.065628,1.00398 -1.031427,0.4817 -2.448619,1.14697 -3.413773,1.5745 -0.965175,0.42753 -1.478264,0.61728 -1.734808,0.71216 -0.256554,0.0949 -0.256564,0.0949 -0.311084,-0.0257 z"
         id="path22" /><path
         style="opacity:1;mix-blend-mode:color-burn;fill:none;stroke:#000000;stroke-width:0.3;stroke-opacity:1;paint-order:stroke fill markers"
         d="m 37.30372,201.49447 c 0.121256,0.0541 0.363756,0.16214 0.563094,0.17483 0.199328,0.0127 0.355494,-0.0701 0.455108,-0.15748 0.09964,-0.0874 0.14269,-0.17946 0.175332,-0.32128 0.03262,-0.14183 0.05493,-0.33334 0.07979,-0.97382 0.02492,-0.64046 0.05241,-1.72977 0.04309,-2.37895 -0.0093,-0.64918 -0.05561,-0.85818 -0.167807,-1.04634 -0.112338,-0.18816 -0.290865,-0.35545 -0.453478,-0.48758 -0.162624,-0.13213 -0.309345,-0.22911 -0.54771,-0.34816 -0.238385,-0.11904 -0.568403,-0.26014 -0.85974,-0.34917 -0.291347,-0.089 -0.544012,-0.12597 -1.469358,-0.025 -0.925356,0.10096 -2.523332,0.33984 -3.385822,0.50615 -0.86249,0.1663 -0.989501,0.26006 -1.07866,0.36392 -0.0892,0.10384 -0.140467,0.21778 -0.127832,0.30585 0.01252,0.0881 0.08914,0.15026 1.208628,0.92646 1.119477,0.7762 3.281802,2.26636 4.362985,3.01145 1.081194,0.7451 1.081194,0.7451 1.202439,0.79915 z"
         id="path23" /><path
         style="opacity:1;mix-blend-mode:color-burn;fill:none;stroke:#000000;stroke-width:0.3;stroke-opacity:1;paint-order:stroke fill markers"
         d="m 39.864232,206.5797 c 0.257919,-0.0985 0.773758,-0.29558 1.238557,-0.51188 0.4648,-0.21631 0.87853,-0.45186 1.211436,-0.63875 0.332907,-0.18689 0.58496,-0.32511 0.807496,-0.52862 0.222535,-0.20351 0.415543,-0.47232 0.557471,-0.76038 0.141958,-0.28805 0.233012,-0.59529 0.258433,-0.90645 0.02566,-0.3111 -0.01395,-0.62592 -0.154538,-1.07051 -0.14061,-0.44459 -0.382263,-1.01891 -0.641851,-1.51252 -0.259598,-0.49362 -0.537118,-0.90651 -0.833839,-1.30165 -0.296721,-0.39515 -0.612622,-0.77253 -0.910418,-1.07644 -0.297805,-0.30391 -0.577484,-0.53433 -0.826743,-0.6908 -0.24925,-0.15647 -0.468059,-0.23897 -0.628662,-0.23288 -0.16059,0.006 -0.262938,0.10078 -0.326138,0.23525 -0.06324,0.13447 -0.08722,0.30868 -0.223998,1.76507 -0.136762,1.4564 -0.386238,4.19485 -0.49514,5.63258 -0.108901,1.43773 -0.07722,1.57462 0.0216,1.66603 0.09879,0.0914 0.264798,0.13734 0.390726,0.13483 0.125925,-0.003 0.21175,-0.0534 0.254686,-0.0789 0.043,-0.0255 0.043,-0.0255 0.300896,-0.12398 z"
         id="path24" /><circle
         style="opacity:1;mix-blend-mode:color-burn;fill:none;stroke:#000000;stroke-width:0.3;stroke-opacity:1;paint-order:stroke fill markers"
         id="path26"
         cx="179.92258"
         cy="-104.62835"
         r="1.4148581"
         transform="rotate(110.65998)" /><circle
         style="opacity:1;mix-blend-mode:color-burn;fill:none;stroke:#000000;stroke-width:0.334792;stroke-opacity:1;paint-order:stroke fill markers"
         id="circle26"
         cx="179.92258"
         cy="-104.62835"
         r="14.08065"
         transform="rotate(110.65998)" /></g></g></svg>
